<svg width="1780" height="1745" viewBox="0 0 1780 1745" fill="none" xmlns="http://www.w3.org/2000/svg">
<path d="M1107.17 1056.95C1006.14 1366.67 736.251 1462.32 593.542 1077.63C573.917 1024.72 625.23 1005.03 661.115 981.753C685.695 965.808 698.607 951.98 697.11 937.723C690.045 870.466 659.456 683.346 659.456 683.346L656.345 677.317C656.345 677.317 657.091 675.628 654.163 678.616C651.111 681.732 644.073 714.267 616.336 714.267C591.469 714.267 566.222 702.897 554.141 624.213C549.768 595.738 552.249 521.087 583.056 507.606C595.787 502.037 607.531 500.045 618.988 506.73C630.445 513.415 605.77 483.879 733.197 375.261C816.027 304.657 946.863 294.309 999.656 306.23C1052.45 318.15 1105.24 344.583 1128.59 400.559C1156.93 468.478 1102.2 519.766 1114.22 674.448C1112.03 730.334 1115.16 852.99 964.808 894.1C936.252 901.909 945.111 944.581 987.945 955.013C1056.27 976.919 1107.22 1030.4 1107.22 1057.09" fill="white"/>
<path fill-rule="evenodd" clip-rule="evenodd" d="M1107.21 575.513L1107.37 574.058C1111.59 536.081 1115.69 499.277 1135.05 466.221C1141.64 470.832 1140.87 476.676 1138.81 482.091C1118.5 535.503 1120.36 590.993 1122.23 646.454C1122.39 651.311 1122.55 656.169 1122.7 661.025C1124.82 730.318 1107.93 793.311 1062.75 846.249C1047.08 864.621 1026.32 877.26 1005.13 888.298C983.371 899.634 978.797 909.251 985.586 933.731C985.834 934.624 986.139 935.521 986.444 936.421C987.835 940.513 989.243 944.657 985.382 948.701C980.77 953.531 975.733 952.153 970.284 950.662C970.077 950.606 969.871 950.549 969.663 950.493C918.323 936.487 872.394 911.361 829.926 879.272C823.892 874.713 818.928 868.494 814.124 862.474L814.124 862.474L813.813 862.084C811.284 858.916 810.837 853.974 814.375 851.179C817.686 848.564 820.292 850.709 823.191 853.094C823.561 853.399 823.936 853.707 824.317 854.01C847.234 872.201 872.471 884.144 902.042 887.148C915.716 888.538 929.251 888.025 942.774 887.513L942.776 887.513C950.384 887.225 957.988 886.937 965.611 886.988C976.054 887.058 984.632 882.103 992.8 877.385C993.77 876.825 994.735 876.267 995.697 875.722C1024.09 859.611 1051.06 841.548 1069.36 812.446C1085.77 786.367 1095.71 757.961 1101.56 728.067C1108.94 690.333 1108.27 652.185 1107.6 613.506C1107.37 600.899 1107.15 588.236 1107.21 575.513ZM593.964 496.884C616.291 495.048 628.727 508.577 639.197 524.245C652.074 543.515 658.934 565.358 661.973 588.419C662.483 592.287 663.012 596.4 660.731 600.19C656.228 600.809 655.802 597.154 655.733 594.412C655.166 572.847 645.814 554.034 636.414 535.827C629.705 522.838 619.842 510.253 604.426 507.058C586.851 503.414 570.685 519.564 562.739 540.715C548.022 579.892 550.462 618.449 564.155 656.419C570.146 673.034 577.61 689.961 592.555 701.553C607.689 713.293 625.909 711.222 637.02 695.631C637.655 694.74 638.327 693.857 639.001 692.973L639.001 692.973C641.037 690.3 643.088 687.606 644.185 684.574C646.334 678.628 649.618 672.974 655.635 673.802C662.593 674.761 663.912 682.467 664.562 688.486C670.476 743.177 678.686 797.522 686.898 851.872L686.898 851.873C688.935 865.357 690.973 878.842 692.975 892.332C695.627 910.181 698.698 935.816 696.638 946.719C696.493 947.493 696.409 948.256 696.329 948.985C696.014 951.839 695.756 954.188 692.095 954.752C687.126 955.517 684.88 952.571 684.27 948.002C681.904 930.263 681.251 923.454 680.233 896.319C679.247 870.015 674.413 844.089 669.581 818.167C667.828 808.762 666.074 799.358 664.505 789.936C659.161 757.852 653.929 725.312 653.459 688.776C652.749 689.851 652.054 690.912 651.37 691.956C643.673 703.712 637.389 713.309 626.391 717.045C608.135 723.252 592.162 718.657 579.367 703.901C564.783 687.084 555.311 667.945 549.982 645.715C541.503 610.341 539.932 575.688 550.929 540.727C556.2 523.954 575.102 494.155 593.964 496.884ZM629.314 629.888C633.771 633.165 637.812 636.137 641.539 624.278C640.34 580.157 626.513 551.994 604.966 550.928C616.464 566.122 627.491 580.951 628.422 601.521C623.599 599.274 620.496 595.739 617.522 592.351C615.451 589.992 613.442 587.704 610.958 585.972C609.9 585.234 608.864 584.417 607.82 583.593C602.999 579.791 597.994 575.843 589.667 578.806C593.573 584.887 598.952 589.18 604.28 593.431C610.432 598.341 616.516 603.196 620.182 610.687C609.356 618.659 604.698 629.152 610.316 641.817C615.19 652.807 622.398 661.886 636.676 662.549C636.143 655.951 631.885 651.15 627.748 646.484C622.718 640.81 617.866 635.338 620.104 627.081C623.367 625.515 626.427 627.766 629.314 629.888Z" fill="black"/>
<path d="M1520.3 1613.52L185.329 1616.37C185.329 1616.37 211.664 1419.23 242.646 1370.54C259.25 1344.45 231.812 1323.48 225.893 1297.19C219.975 1270.9 213.927 1236.8 215.172 1226.9C216.417 1217 213.786 1196.3 210.796 1181.71C207.806 1167.12 210.591 1152.13 203.604 1139.48C196.618 1126.82 195.475 1113.42 203.629 1107.4C211.783 1101.38 551.656 978.563 551.656 978.563L562.176 956.085C562.176 956.085 610.011 919.738 635.751 913.596C661.491 907.455 683.839 903.441 683.839 903.441C683.839 903.441 678.488 928.85 682.434 941.698C686.38 954.546 777.341 1013.51 840.128 1008.23C913.512 1002.05 982.307 961.114 987.826 944.893C993.346 928.671 984.522 925.171 981.09 911.762C977.657 898.353 985.963 893.361 1000.79 901.755C1015.61 910.15 1216.28 1017.39 1259.79 1037.77C1303.3 1058.16 1466.43 1110.1 1466.43 1110.1C1466.43 1110.1 1497.28 1119.32 1493.66 1128.06C1485.95 1146.72 1469.11 1129.2 1469.11 1179.8C1469.11 1211.15 1443.29 1310.84 1443.29 1310.84C1443.29 1310.84 1483.7 1439.92 1490.46 1465.43C1497.22 1490.94 1520.3 1613.52 1520.3 1613.52Z" fill="black"/>
<path fill-rule="evenodd" clip-rule="evenodd" d="M599.544 1616.33C596.946 1556.7 594.435 1497.12 595.127 1437.42C595.949 1366.6 595.862 1295.75 594.413 1224.95C594.231 1216.02 594.369 1207.09 594.507 1198.15V1198.15C594.774 1180.94 595.04 1163.73 593.014 1146.58C592.838 1145.1 592.845 1143.58 592.852 1142.04V1142.04C592.869 1138.18 592.887 1134.12 590.06 1129.9C587.908 1130.88 585.786 1131.97 583.662 1133.07C575.556 1137.24 567.403 1141.44 557.323 1139.81C545.488 1137.91 539.626 1133.23 540.423 1120.77C541.307 1106.95 543.087 1093.17 545.072 1079.46C546.975 1066.31 547.639 1053.05 548.31 1039.66C549.109 1023.71 549.918 1007.57 552.841 991.164C534.237 996.47 516.621 1001.56 499.853 1009.75C476.99 1020.92 452.327 1026.68 427.896 1032.4L427.874 1032.4C426.041 1032.83 424.208 1033.26 422.378 1033.69C396.923 1039.55 371.91 1047.27 347.53 1056.79C338.495 1060.37 329.297 1063.5 320.106 1066.63L320.105 1066.63C305.712 1071.54 291.332 1076.44 277.612 1083.04C256.374 1093.27 235.64 1104.67 215.138 1116.38C207.469 1120.77 206.274 1128 213.036 1135.25C219.647 1142.35 221.418 1150.49 218.264 1159.96C216.07 1166.55 216.9 1172.91 220.02 1179.42C224.466 1188.7 224.429 1198.73 224.392 1208.7C224.376 1213.13 224.36 1217.55 224.736 1221.89C228.289 1262.84 241.411 1300.24 260.206 1335.91C268.078 1350.85 274.375 1366.49 280.671 1382.14L280.672 1382.14C285.631 1394.46 290.591 1406.78 296.319 1418.75C298.256 1422.8 309.141 1450.09 321.672 1483.26C322.758 1486.14 321.272 1490.8 319.77 1495.52C318.241 1500.32 316.696 1505.17 317.832 1508.23C319.019 1511.42 322.495 1512.71 326.204 1514.09C329.389 1515.27 332.745 1516.52 334.968 1519.09C347.401 1533.46 350.927 1544.07 355.675 1558.36L355.823 1558.8C363.486 1581.85 364.475 1607.84 364.614 1615.14C359.843 1616.3 354.882 1616.37 350.083 1615.35C352.028 1600.45 348.919 1586.82 345.837 1573.3L345.837 1573.3C344.736 1568.47 343.638 1563.65 342.775 1558.8C339.94 1542.85 333.063 1531.24 317.832 1525.76C307.14 1521.92 303.778 1515.09 304.883 1503.03C305.12 1500.44 305.495 1497.79 305.874 1495.12C307.333 1484.84 308.844 1474.19 302.732 1464.86C286.998 1440.85 275.696 1414.55 264.176 1387.75C261.88 1382.41 259.576 1377.05 257.225 1371.68C256.73 1372.47 256.248 1373.23 255.782 1373.96C253.004 1378.31 250.801 1381.77 249.63 1385.99C246.83 1396.06 243.991 1406.13 241.151 1416.2C229.349 1458.03 217.55 1499.86 208.643 1542.55C203.536 1567.01 200.631 1591.54 198.7 1616.33H184.044C180.463 1604.33 183.002 1592.86 185.53 1581.44C186.385 1577.58 187.239 1573.72 187.855 1569.84C194.529 1527.85 205.108 1486.75 215.7 1445.6L216.272 1443.38C224.079 1413.06 234.934 1384.15 246.341 1355.31C248.653 1349.46 247.542 1345.72 243.485 1340.95C227.916 1322.67 222.767 1299.72 219.146 1276.73C218.555 1272.98 217.943 1269.23 217.331 1265.48L217.33 1265.48C213.33 1240.97 209.319 1216.4 211.201 1191.3C204.406 1183.2 203.831 1173.27 203.252 1163.25C202.649 1152.82 202.04 1142.3 194.407 1133.67C187.899 1126.31 196.975 1107.41 209.719 1100.14C243.545 1080.83 277.817 1062.54 315.29 1051.29C332.791 1045.89 350.006 1039.56 366.868 1032.32C384.071 1025.1 402.054 1021 420.036 1016.9C431.383 1014.31 442.73 1011.73 453.881 1008.36C467.69 1004.18 481.125 998.906 494.557 993.634L494.557 993.634C511.66 986.92 528.758 980.209 546.619 975.767C553.784 973.985 558.202 969.38 558.299 961.564C558.401 953.521 562.519 948.77 568.595 944.119C591.535 926.56 618.243 918.034 644.907 909.522C646.051 909.157 647.196 908.791 648.34 908.425C652.594 907.065 656.605 905.123 660.615 903.182C666.44 900.363 672.261 897.545 678.813 896.513C679.697 896.373 680.569 896.203 681.438 896.035C684.82 895.377 688.147 894.73 691.894 895.909C693.928 902.854 689.846 906.289 684.931 908.348C679.697 910.542 674.473 912.769 669.248 914.997L669.248 914.997C651.622 922.513 633.986 930.033 615.934 936.261C607.915 939.027 600.883 943.442 593.87 947.844C587.96 951.553 582.064 955.254 575.604 957.953C573.163 958.972 571.195 963.781 570.836 967.05C567.482 997.592 564.39 1028.17 561.297 1058.74C560.83 1063.36 560.362 1067.98 559.894 1072.6C559.397 1077.5 558.937 1082.4 558.476 1087.3L558.476 1087.3C557.639 1096.2 556.803 1105.11 555.749 1113.99C555.655 1114.78 555.513 1115.57 555.371 1116.36C554.787 1119.62 554.217 1122.79 557.138 1125.24C560.181 1127.8 562.953 1126.29 565.755 1124.77C566.49 1124.37 567.227 1123.97 567.971 1123.65C596.875 1110.9 617.354 1088.04 637.798 1065.21C642.403 1060.07 647.007 1054.93 651.705 1049.91C666.719 1033.86 679.132 1030.24 698.341 1039.81C704.073 1042.66 709.407 1044.59 716.409 1042.03C712.674 1034.31 708.675 1026.76 704.688 1019.23C696.216 1003.23 687.798 987.338 682.08 970.123C677.014 954.872 678.482 939.279 679.939 923.807C680.034 922.798 680.129 921.789 680.222 920.781C680.77 914.842 684.685 910.077 691.854 909.579C697.891 915.573 698.018 925.521 697.975 931.482C697.786 957.429 716.513 966.157 733.427 974.04L733.917 974.268C785.186 998.178 839.678 1000.39 894.406 991.887C924.825 987.16 952.959 974.964 976.327 953.065C987.96 942.163 986.595 929.171 980.868 917.258C976.325 907.812 979.402 901.762 984.669 895.778C989.447 890.351 995.203 892.65 1000.49 894.764C1001.29 895.08 1002.07 895.391 1002.83 895.672C1034.28 907.216 1063.06 924.098 1091.95 941.045C1093.66 942.05 1095.38 943.056 1097.09 944.06C1110.65 951.998 1124.92 958.631 1139.2 965.266L1139.2 965.266C1152.26 971.337 1165.32 977.409 1177.84 984.483C1213.2 1004.45 1249.45 1022.54 1285.75 1040.43C1304.65 1049.74 1324.62 1056.84 1344.55 1063.93C1350.12 1065.91 1355.68 1067.89 1361.22 1069.92C1375.38 1075.1 1389.63 1080 1403.88 1084.9C1416.06 1089.08 1428.23 1093.27 1440.34 1097.63C1445.84 1099.6 1451.54 1099.9 1457.24 1100.2C1463.29 1100.52 1469.35 1100.83 1475.16 1103.17C1476.66 1103.78 1478.18 1104.34 1479.7 1104.91C1486.78 1107.54 1493.79 1110.15 1498.86 1116.59C1506.64 1126.49 1506.39 1134.76 1495.76 1141.3C1483.42 1148.89 1476.69 1157.45 1482.16 1172.78C1483.81 1177.42 1481.84 1182.31 1480.07 1186.7C1479.83 1187.29 1479.6 1187.87 1479.38 1188.43C1469.24 1214.52 1462.23 1271.51 1460.45 1285.94V1285.94C1460.38 1286.51 1460.32 1287.01 1460.27 1287.44C1460.19 1288.07 1460.13 1288.55 1460.09 1288.87C1456.31 1316.89 1462.96 1336.83 1470.49 1359.41L1470.49 1359.41C1472.33 1364.91 1474.21 1370.57 1476.01 1376.54C1488.11 1416.62 1499.68 1456.82 1510.35 1497.35C1519.33 1531.46 1526.33 1565.87 1532.12 1600.62C1532.71 1604.17 1532.56 1607.85 1532.38 1612.14V1612.14L1532.38 1612.16C1532.34 1613.13 1532.3 1614.14 1532.27 1615.19C1528.31 1616.35 1524.66 1616.35 1519.75 1615.41C1510.17 1542.52 1489.49 1473.33 1468.84 1404.26C1462.02 1381.47 1455.21 1358.69 1448.81 1335.8C1442.35 1347.17 1436.9 1357.91 1433.44 1369.29C1422.9 1403.94 1406.25 1434.85 1382.69 1461.94C1382.21 1462.5 1381.69 1463.08 1381.15 1463.68C1380.9 1463.95 1380.65 1464.22 1380.4 1464.5C1376.25 1469.06 1371.36 1474.44 1372.14 1478.18C1374.97 1491.75 1368.27 1499.67 1361.26 1507.97C1360.15 1509.28 1359.03 1510.6 1357.95 1511.95C1353.25 1517.97 1350.21 1525.16 1349.14 1532.78C1347.87 1541.37 1346.35 1549.91 1344.83 1558.46L1344.83 1558.46L1344.83 1558.47C1341.42 1577.62 1338.01 1596.78 1337.36 1616.34H1322.72C1324.76 1609.96 1325.21 1602.57 1325.79 1593.18V1593.18C1326.73 1577.65 1328.02 1556.66 1337.36 1525.76C1337.58 1525.04 1337.72 1524.23 1337.87 1523.29L1337.87 1523.29C1338.54 1519.24 1339.58 1513 1349.14 1503.03C1357.76 1494.03 1357.65 1483.34 1357.58 1476.67C1357.55 1474.23 1357.53 1472.32 1357.95 1471.24C1363.61 1456.44 1383.81 1430.02 1393.76 1417L1393.76 1416.99C1396.71 1413.14 1398.76 1410.46 1399.26 1409.61C1422.85 1369.92 1439.44 1326.29 1448.27 1280.7C1451.04 1266.4 1453.33 1251.85 1455.61 1237.3C1457.42 1225.78 1459.22 1214.26 1461.27 1202.86C1461.82 1199.79 1462.39 1196.74 1462.97 1193.69C1465.57 1179.8 1468.14 1166.02 1468.69 1151.72C1468.98 1144.06 1475.47 1140.18 1481.5 1136.58C1481.83 1136.38 1482.16 1136.18 1482.48 1135.99C1482.73 1135.84 1482.98 1135.69 1483.23 1135.54C1483.38 1135.44 1483.53 1135.35 1483.68 1135.26C1487 1133.25 1490.56 1131.09 1490.04 1126.62C1489.55 1122.35 1486.07 1121.35 1482.53 1120.32C1482.11 1120.2 1481.7 1120.08 1481.29 1119.96C1470.84 1116.78 1460.19 1114.5 1449.53 1112.22C1435.91 1109.32 1422.3 1106.41 1409.14 1101.61C1402.24 1099.1 1395.32 1096.65 1388.4 1094.2L1388.39 1094.2C1374.29 1089.21 1360.18 1084.22 1346.29 1078.68C1319.6 1068.05 1292.94 1057.23 1266.88 1045.1C1236.75 1031.08 1207.28 1015.61 1178.07 999.557C1159.21 989.193 1139.85 979.194 1119.04 972.384C1138.94 1008.67 1142.58 1048.38 1146.21 1088.07V1088.07C1147.13 1098.1 1148.05 1108.13 1149.23 1118.1C1150.79 1131.26 1146.17 1142.56 1135.39 1149.29C1122.91 1157.07 1109.62 1155.84 1097.04 1147.85C1096.01 1147.2 1095.06 1146.38 1094.1 1145.55C1091.74 1143.51 1089.32 1141.42 1085.5 1141.63C1085.18 1193.37 1085.47 1245.1 1085.77 1296.86C1086.37 1402.67 1086.97 1508.61 1082.35 1615.09C1076.77 1616.31 1071.01 1616.38 1065.41 1615.3C1066.01 1594.02 1066.96 1572.97 1067.9 1552.04V1552.03C1069 1527.57 1070.09 1503.27 1070.61 1478.96C1071.51 1437.39 1071.26 1395.8 1071.01 1354.22V1354.21C1070.97 1346.43 1070.92 1338.65 1070.88 1330.86C1070.61 1275.5 1070.05 1220.15 1069.49 1164.78L1069.49 1164.77C1069.42 1157.86 1069.35 1150.96 1069.28 1144.06C1069.26 1142.01 1069.47 1139.95 1069.69 1137.89V1137.89C1070.29 1132.14 1070.89 1126.38 1066.38 1120.97C1059.48 1112.67 1052.81 1104.17 1046.13 1095.66C1041.7 1090.01 1037.28 1084.37 1032.78 1078.78C1025.18 1069.33 1015.56 1062.15 1005.34 1056.15C994.72 1049.91 990.103 1052.98 987.597 1064.9C986.135 1071.87 986.87 1078.66 987.604 1085.45C988.018 1089.29 988.433 1093.12 988.452 1096.97C988.872 1181.2 986.79 1265.33 984.064 1349.52C982.543 1396.46 981.631 1443.77 980.868 1490.74C980.466 1515.52 979.4 1540.19 978.333 1564.87C977.59 1582.07 976.847 1599.27 976.327 1616.53C972.218 1616.66 966.25 1616.09 962.235 1615.19C963.11 1591.08 964.329 1565.03 965.405 1542.02V1542.02C966.696 1514.43 967.782 1491.21 967.823 1481.01C967.969 1445 969.373 1376.87 970.719 1311.52L970.719 1311.51C971.851 1256.61 972.941 1203.67 973.211 1173.42C973.439 1147.79 973.38 1122.16 973.322 1096.87V1096.86L973.322 1096.82C973.296 1085.54 973.27 1074.33 973.27 1063.22C961.628 1061.27 951.772 1067.01 943.055 1075.39C934.823 1083.3 924.565 1087.83 914.121 1090.21C872.885 1099.64 831.163 1102.41 789.242 1095.5C767.536 1091.92 746.88 1085.39 730.272 1069.27C727.101 1066.2 723.568 1063.51 719.413 1060.35C717.299 1058.74 715.023 1057.01 712.551 1055.04C712.551 1059.93 713.644 1076.6 715.017 1097.54C717.293 1132.27 720.339 1178.72 720.438 1202.56C720.514 1221.55 721.357 1240.53 722.2 1259.52L722.2 1259.52L722.2 1259.53C722.493 1266.11 722.785 1272.7 723.045 1279.28C723.148 1281.87 728.16 1541.25 728.213 1597.73C728.214 1598.94 728.187 1600.14 728.16 1601.35C728.045 1606.41 727.93 1611.48 729.9 1616.34C724.256 1616.48 718.61 1616.15 713.02 1615.33C714.792 1596.71 712.345 1478.24 710.595 1393.52L710.595 1393.52C709.781 1354.13 709.118 1322.03 709.1 1310.67C709.036 1267.76 706.849 1224.96 704.663 1182.18C702.752 1144.78 700.841 1107.4 700.349 1069.95C700.204 1058.83 697.397 1053.04 686.818 1049.58C675.974 1046.02 668.758 1050.47 662.78 1058.03C652.942 1070.5 642.07 1082.06 630.288 1092.61C614.938 1106.31 606.858 1121.27 606.45 1144.27C605.44 1201.05 607.402 1257.76 609.363 1314.47V1314.47C611.283 1369.97 613.202 1425.46 612.337 1481.01C611.854 1512 612.582 1543.01 613.311 1574.02L613.311 1574.02C613.643 1588.13 613.974 1602.23 614.192 1616.34L599.544 1616.33ZM1122.8 1022.36C1118.58 997.975 1109.13 975.476 1090.78 959.676C1066.49 938.766 1037.58 925.781 1008.45 912.695L1008.45 912.692C1003.42 910.433 998.385 908.171 993.365 905.864C1002.01 919.262 1005 933.695 1000.08 948.045C995.511 961.386 989.782 974.416 981.192 986.118C968.309 1003.67 960.93 1023.33 966.26 1047.18C981.164 1038.52 995.213 1033.59 1012 1042.28C1030.62 1051.93 1044.13 1066.53 1056.01 1082.96C1069.81 1102.03 1083.82 1120.58 1103.12 1134.26C1110.83 1139.72 1119.09 1139.42 1126.84 1136.26C1134.7 1133.07 1134.58 1125.01 1133.82 1117.67C1132.84 1108.22 1132.25 1098.73 1131.67 1089.17C1130.32 1067.3 1128.94 1045.09 1122.79 1022.36L1122.8 1022.36ZM717.052 1014.15C714.449 1009.23 711.847 1004.32 709.459 999.292C704.79 988.585 700.915 979.724 696.98 970.726C782.581 1022.15 870.026 1027.26 961.795 984.607C960.726 987.24 959.621 989.824 958.526 992.382C954.882 1000.9 951.357 1009.14 949.689 1018.03C949.497 1019.04 949.291 1020.06 949.086 1021.06C948.222 1025.3 947.368 1029.49 947.635 1033.93C948.884 1054.74 943.166 1062.79 923.848 1070.05C891.617 1082.18 858.354 1083.64 824.602 1081.45C816.298 1080.91 807.973 1080.79 799.658 1081.11C779.637 1081.88 763.1 1072.52 746.621 1063.2C744.421 1061.96 742.222 1060.72 740.016 1059.5C736.555 1057.59 733.403 1053 732.312 1049.01C728.9 1036.54 722.975 1025.34 717.052 1014.15Z" fill="white"/>
<path d="M979.728 803.808C984.712 788.907 983.959 786.866 969.77 784.289C959.382 782.404 950.059 777.722 940.201 774.483C929.099 770.838 921.825 760.094 910.143 757.257C904.016 788.316 944.545 816.198 979.728 803.808Z" fill="white"/>
<path fill-rule="evenodd" clip-rule="evenodd" d="M907.009 799.21C925.827 817.108 948.477 825.816 975.768 821.31C978.027 820.354 980.219 819.489 982.344 818.651C987.182 816.741 991.671 814.97 995.815 812.577C1001.06 809.552 1005.3 803.054 1000.71 798.208C990.582 787.524 995.661 781.362 1004.78 775.12C1008.76 772.4 1011.32 768.605 1009.2 763.878C1006.41 757.656 1001.04 759.917 996.827 761.75C991.891 763.898 986.851 764.437 981.697 764.988C980.851 765.078 980.001 765.169 979.148 765.267C953.899 768.177 933.419 755.977 913.059 743.848C912.874 743.738 912.69 743.628 912.506 743.518C900.468 736.348 893.119 738.764 891.555 753.136C889.65 770.66 894.404 787.22 907.009 799.21ZM969.769 784.293C983.958 786.87 984.711 788.911 979.727 803.812L979.728 803.807C944.545 816.198 904.016 788.316 910.142 757.261C916.326 758.763 921.275 762.48 926.21 766.188C930.598 769.484 934.975 772.772 940.2 774.488C943.547 775.587 946.832 776.853 950.118 778.12C956.511 780.583 962.908 783.048 969.769 784.293Z" fill="black"/>
<path d="M995.271 682.823C1000.93 678.747 1005.16 672.922 1007.35 666.203C1010.16 657.997 1008.42 648.878 1002.81 642.346C997.473 636.053 990.214 638.552 983.387 640.639C979.197 641.919 973.792 646.12 970.978 639.376C968.53 633.5 972.858 628.957 977.16 626.064C985.587 620.4 994.776 619.358 1004.48 623.223C1016.6 628.054 1021.21 638.324 1022.95 650.137C1029.73 696.274 991.385 706.853 961.005 704.902C958.831 704.656 956.751 703.856 954.957 702.576C951.52 700.248 946.111 698.563 947.614 693.062C949.325 686.803 954.495 687.855 959.482 688.867C971.743 691.354 983.41 689.072 995.271 682.823Z" fill="black"/>
<path d="M1038.34 626.948C1051.66 627.291 1064.21 628.117 1076.7 629.573C1079.71 629.924 1081.72 633.039 1081.79 636.51C1081.86 639.982 1080 642.395 1076.97 643.751C1065.58 648.853 1054.51 652.409 1042.59 644.023C1035.98 639.376 1033.5 634.982 1038.34 626.948Z" fill="black"/>
<path d="M875.306 621.222C882.439 621.222 883.34 625.141 882.445 630.107C880.547 640.682 862.125 653.436 851.516 651.504C845.482 650.406 840.795 647.263 840.583 640.499C840.365 633.51 845.522 631.905 851.087 631.705C860.191 631.38 867.2 626.364 875.306 621.222Z" fill="black"/>
<path d="M842.238 579.097C847.324 566.539 851.305 548.428 866.801 555.61C887.891 565.388 880.934 587.662 876.669 605.015C875.06 611.563 861.861 621.614 858.053 619.991C841.442 612.907 838.406 597.31 842.238 579.097Z" fill="black"/>
<path d="M1073.57 617.476C1064.82 625.253 1056.26 625.404 1050.99 615.911C1041.69 599.18 1042.2 581.669 1054.38 566.632C1056.92 563.491 1068.4 562.846 1070.98 565.65C1085.2 581.152 1085.81 598.734 1073.57 617.476Z" fill="black"/>
<path d="M820.984 508.694C849.234 485.589 881.678 488.754 913.586 489.775C919.436 489.963 926.082 491.18 928.139 498.581C930.369 506.606 923.487 508.81 919.164 512.893C903.264 527.908 885.625 530.717 865.928 521.932C854.894 517.01 844.079 518.753 833.472 523.601C831.494 524.505 829.558 525.516 827.543 526.319C821.072 528.898 812.973 532.62 808.601 525.848C804.091 518.865 814.293 516.545 817.066 511.546C817.642 510.492 819.071 509.922 820.984 508.694Z" fill="black"/>
<path d="M1090.38 500.012C1098.18 504.516 1105.08 510.496 1110.7 517.633C1113.27 520.845 1115.86 524.309 1113.72 528.392C1111.39 532.809 1106.92 531.188 1103.17 530.701C1090.45 529.046 1078.97 521.103 1065.44 523.19C1060.36 523.974 1055.36 523.869 1050.24 525.751C1036.91 530.654 1018.51 519.054 1016.4 505.089C1015.55 499.472 1017.43 496.222 1023.44 494.643C1046.09 488.69 1068.38 485.252 1090.38 500.012Z" fill="black"/>
<path d="M597.719 486.382C592.465 452.901 605.055 384.822 618.003 357.491C630.951 330.16 666.711 267.891 691.154 251.962C715.596 236.033 770.559 211.996 789.107 201.671C807.655 191.346 850.706 181.884 879.914 183.121C909.122 184.358 946.12 190.949 977.027 202.908C1007.93 214.867 1051.86 235.473 1074.14 260.208C1096.42 284.943 1100.02 282.96 1118.78 313.062C1137.54 343.164 1140.37 361.826 1147.77 372.846C1155.17 383.866 1180.17 398.346 1200.21 423.432C1220.25 448.518 1229.21 452.279 1235.6 475.273C1242 498.267 1243.01 504.225 1238.16 512.481C1233.31 520.737 1222.94 533.803 1210.45 533.803C1197.95 533.803 1181.92 535.903 1163.55 522.097C1145.17 508.291 1128.41 504.956 1114.94 488.233C1101.47 471.51 1087.65 473.599 1071.88 458.133C1056.1 442.667 1043.61 446.158 1014.32 436.808C985.027 427.458 977.651 446.424 949.936 433.464C922.222 420.504 916.68 431.792 897.068 443.916C877.455 456.04 858.268 468.582 837.376 475.689C816.485 482.796 768.731 496.589 748.692 494.084C728.653 491.579 703.498 481.124 681.753 495.338C660.008 509.552 652.333 514.151 643.806 517.078C635.28 520.005 636.111 519.296 628.052 512.188C619.993 505.08 621.794 504.578 614.12 502.07C606.446 499.562 597.719 486.382 597.719 486.382Z" fill="white"/>
<path fill-rule="evenodd" clip-rule="evenodd" d="M632.301 544.873C631.276 542.34 630.408 539.842 629.565 537.416C627.877 532.562 626.29 527.995 623.751 524.009C616.758 513.027 621.344 506.991 631.024 501.493C636.928 498.139 642.524 494.249 648.11 490.367L648.11 490.366L648.112 490.365C649.228 489.59 650.342 488.815 651.459 488.045C671.471 474.245 691.983 470.986 714.9 482.064C736.654 492.58 759.467 489.191 782.397 484.393C831.043 474.216 874.417 453.072 916.23 427.317C943.399 410.475 973.13 397.986 1004.31 390.317C1037.69 382.27 1072.11 383.859 1105.78 394.408C1129.49 401.838 1152.87 409.831 1172.15 425.38C1195.82 444.48 1218.38 465.008 1228.09 495.08C1228.25 495.596 1228.44 496.137 1228.64 496.695L1228.64 496.696C1230.18 501.11 1232.07 506.513 1225.77 508.18C1221.15 509.405 1219.92 505.502 1218.75 501.787C1218.39 500.653 1218.04 499.537 1217.59 498.59C1201.07 463.105 1173.99 437.626 1139.18 419.702C1099.29 399.166 1056.68 394.255 1012.73 400.964C999.99 402.909 988.208 407.927 975.874 413.181C968.304 416.405 960.526 419.718 952.191 422.464C958.598 425.792 963.861 426.296 968.963 426.784L968.969 426.785C969.626 426.847 970.28 426.91 970.934 426.979C1019.72 432.086 1066.7 442.843 1107.13 471.943C1113.53 476.55 1119.41 481.842 1125.3 487.136C1130.56 491.871 1135.82 496.608 1141.46 500.859C1141.93 501.207 1142.39 501.555 1142.85 501.903L1142.96 501.985C1158.19 513.48 1173.49 525.019 1193.36 528.695C1222.3 534.049 1241.48 514.877 1233.92 487.171C1225.48 456.23 1203.68 433.98 1180.94 413.071C1154.56 388.82 1123.97 370.996 1089.62 358.723C1046.9 343.46 1002.98 341.2 958.74 345.143C914.671 349.07 871.119 357.534 829.684 373.314C808.764 381.281 788.507 390.999 768.296 400.694L768.295 400.695L768.286 400.699C765.543 402.015 762.802 403.33 760.059 404.641C719.489 424.025 684.336 451.18 649.193 478.329C643.645 482.614 638.097 486.9 632.529 491.155C630.339 492.828 628.752 495.164 627.146 497.528C624.202 501.859 621.197 506.281 614.31 506.881C612.517 495.831 620.187 489.236 626.599 483.724C627.092 483.299 627.578 482.882 628.052 482.469C651.63 461.91 675.51 441.516 702.321 424.938C709.432 420.538 711.54 415.005 712.104 407.015C715.42 358.207 728.545 310.524 750.726 266.709C753.147 261.911 755.468 257.062 757.79 252.21C764.82 237.523 771.866 222.801 781.782 209.341C722.427 231.041 677.831 269.426 645.052 322.568C612.15 375.909 604.111 434.319 606.806 497.309C597.809 492.317 597.424 486.584 597.05 480.742C594.184 435.954 599.268 392.161 617.076 350.634C634.72 309.483 660.149 273.449 695.623 244.78C722.529 223.036 751.692 205.251 785.342 195.318C791.709 193.438 793.831 188.591 796.128 183.344C796.276 183.006 796.424 182.668 796.575 182.328C802.786 168.28 806.338 167.5 817.568 177.458C823.155 182.412 828.48 183.845 836.361 182.38C869.132 176.29 901.78 177.69 934.624 184.07C1007.11 198.152 1064.93 235.145 1109.98 291.411C1127.85 313.738 1141.77 338.939 1150.02 366.611C1152.76 375.678 1158.59 383.544 1166.55 388.885C1196.99 410.249 1221.53 436.546 1238.04 469.799C1245.48 484.799 1248.14 501.358 1239.9 515.064C1229.97 531.597 1214.36 540.891 1191.76 536.997C1173.36 533.826 1158.33 526.297 1144.29 515.397C1139.24 511.476 1134.25 507.466 1129.27 503.458L1129.27 503.454L1129.27 503.454C1108.55 486.79 1087.84 470.137 1062.54 459.874C1022.03 443.259 978.332 435.405 934.44 436.845C920.55 437.295 908.801 444.693 897.242 451.971C894.467 453.718 891.703 455.458 888.923 457.094C847.636 481.372 801.829 491.949 755.2 499.958C745.29 501.658 735.103 500.119 725.506 497.299C717.871 495.055 714.186 498.071 711.277 504.254C700.852 526.392 692.847 549.054 692.593 573.894C692.515 581.444 691.779 588.986 691.043 596.53C690.661 600.442 690.279 604.354 689.989 608.268C689.537 614.359 686.336 617.829 680.138 617.954C678.628 617.984 677.114 618.046 675.594 618.109H675.594C669.31 618.369 662.914 618.633 656.217 616.654C652.884 601.634 647.516 587.204 642.057 572.527C638.688 563.468 635.283 554.316 632.301 544.873ZM961.41 213.473C926.525 197.909 889.381 192.102 851.591 191.113C816.125 190.185 791.578 208.962 777.313 239.266C774.684 244.85 772.01 250.414 769.337 255.98C756.974 281.715 744.604 307.463 736.549 335.197C729.882 358.146 726.452 381.23 722.614 407.057L722.613 407.057C722.39 408.558 722.166 410.069 721.939 411.589C834.841 348.033 952.492 318.221 1080.62 341.97C1069.24 310.488 1047.85 287.882 1026.79 265.627L1026.76 265.589C1026.18 264.982 1025.61 264.376 1025.04 263.77C1006.98 244.667 987.336 226.522 961.41 213.469V213.473ZM992.911 217.151C1009.98 222.85 1025.76 230.623 1039.67 241.866V241.862C1086.62 274.309 1117.58 316.424 1137.84 366.765C1127.14 363.556 1117.51 358.75 1108 354.002C1105.03 352.517 1102.07 351.038 1099.09 349.615C1094.44 347.398 1091.58 341.044 1088.91 335.129C1088.24 333.643 1087.58 332.184 1086.91 330.826C1065.38 287.175 1033.6 251.866 995.387 221.706C993.942 220.598 993.043 218.944 992.911 217.151Z" fill="black"/>
</svg>
